<?xml version="1.0" encoding="UTF-8" standalone="no"?>
<svg
   width="256"
   height="256"
   viewBox="0 0 256 256"
   version="1.1"
   id="svg844"
   sodipodi:docname="Optimism OP Coin Icon 256x256.svg"
   inkscape:version="1.1 (c68e22c387, 2021-05-23)"
   xmlns:inkscape="http://www.inkscape.org/namespaces/inkscape"
   xmlns:sodipodi="http://sodipodi.sourceforge.net/DTD/sodipodi-0.dtd"
   xmlns="http://www.w3.org/2000/svg"
   xmlns:svg="http://www.w3.org/2000/svg">
  <defs
     id="defs848" />
  <sodipodi:namedview
     id="namedview846"
     pagecolor="#ffffff"
     bordercolor="#666666"
     borderopacity="1.0"
     inkscape:pageshadow="2"
     inkscape:pageopacity="0.0"
     inkscape:pagecheckerboard="0"
     showgrid="false"
     inkscape:zoom="0.68911164"
     inkscape:cx="85.617477"
     inkscape:cy="103.75677"
     inkscape:window-width="1366"
     inkscape:window-height="705"
     inkscape:window-x="-8"
     inkscape:window-y="-8"
     inkscape:window-maximized="1"
     inkscape:current-layer="svg844" />
  <g
     id="optimism-logo-circle"
     transform="scale(2.0983607)">
    <circle
       id="Ellipse_11"
       data-name="Ellipse 11"
       cx="61"
       cy="61"
       r="61"
       fill="#ff0420" />
    <path
       id="Path_139"
       data-name="Path 139"
       d="m 113.533,178.026 a 14.656,14.656 0 0 1 -8.924,-2.563 8.762,8.762 0 0 1 -3.432,-7.413 16.433,16.433 0 0 1 0.229,-2.471 q 0.595,-3.3 1.693,-7.917 3.112,-12.585 16.062,-12.585 a 15.966,15.966 0 0 1 6.315,1.19 9.6,9.6 0 0 1 4.393,3.478 9.333,9.333 0 0 1 1.6,5.492 16.288,16.288 0 0 1 -0.229,2.425 q -0.687,4.073 -1.647,7.917 -1.6,6.269 -5.537,9.381 -3.933,3.066 -10.523,3.066 z m 0.641,-6.59 a 6.5,6.5 0 0 0 4.348,-1.51 8.424,8.424 0 0 0 2.608,-4.622 q 1.053,-4.3 1.6,-7.505 a 10.5,10.5 0 0 0 0.183,-1.968 q 0,-4.165 -4.347,-4.164 a 6.681,6.681 0 0 0 -4.393,1.51 8.573,8.573 0 0 0 -2.563,4.622 q -0.824,3.066 -1.647,7.505 a 9.791,9.791 0 0 0 -0.183,1.922 q 0,4.21 4.394,4.21 z"
       transform="translate(-70.332,-100.849)"
       fill="#ffffff" />
    <path
       id="Path_140"
       data-name="Path 140"
       d="m 205.3,178.612 a 0.97,0.97 0 0 1 -0.778,-0.32 1.1,1.1 0 0 1 -0.137,-0.824 l 6.315,-29.746 a 1.31,1.31 0 0 1 0.5,-0.824 1.4,1.4 0 0 1 0.87,-0.32 h 12.173 a 14.148,14.148 0 0 1 8.146,2.105 6.9,6.9 0 0 1 3.112,6.087 10.955,10.955 0 0 1 -0.275,2.38 12.39,12.39 0 0 1 -4.622,7.78 q -3.432,2.517 -9.427,2.517 H 215 l -2.105,10.022 a 1.311,1.311 0 0 1 -0.5,0.824 1.4,1.4 0 0 1 -0.869,0.32 z m 16.2,-17.482 a 5.451,5.451 0 0 0 3.341,-1.052 4.942,4.942 0 0 0 1.922,-3.02 8.022,8.022 0 0 0 0.137,-1.373 2.543,2.543 0 0 0 -0.778,-2.014 3.836,3.836 0 0 0 -2.654,-0.732 h -5.491 l -1.739,8.191 z"
       transform="translate(-142.055,-101.892)"
       fill="#ffffff" />
  </g>
</svg>
