<?xml version="1.0" encoding="utf-8"?>
<!-- Generator: Adobe Illustrator 19.0.1, SVG Export Plug-In . SVG Version: 6.00 Build 0)  -->
<svg version="1.1" id="Layer_1" xmlns="http://www.w3.org/2000/svg" xmlns:xlink="http://www.w3.org/1999/xlink" x="0px" y="0px"
	 viewBox="183.8 107.3 589.8 586.7" style="enable-background:new 183.8 107.3 589.8 586.7;" xml:space="preserve">
<style type="text/css">
	.st0{fill:#0039A6;}
	.st1{fill:#FFFFFF;}
	.st2{fill:#D52B1E;}
</style>
<g>
	<g id="XMLID_1_">
		<g>
			<path class="st0" d="M741.2,308.8c10.2,28.8,15.7,59.9,15.7,92.2s-5.5,63.3-15.7,92.2H219.7C209.5,464.3,204,433.3,204,401
				s5.5-63.3,15.7-92.2H741.2z"/>
			<path class="st1" d="M480.5,124.5c120.4,0,222.8,76.9,260.8,184.3H219.7c13.9-39.3,36.4-74.5,65.2-103.3
				C335,155.4,404.1,124.5,480.5,124.5z"/>
			<path class="st2" d="M219.7,493.2h521.5c-13.9,39.3-36.4,74.5-65.3,103.4c-50,50-119.2,81-195.5,81c-76.4,0-145.5-31-195.5-81
				C256.1,567.7,233.6,532.4,219.7,493.2z"/>
		</g>
	</g>
</g>
</svg>
